<?xml version="1.0" encoding="utf-8"?>
<!-- Generator: Adobe Illustrator 17.1.0, SVG Export Plug-In . SVG Version: 6.00 Build 0)  -->
<!DOCTYPE svg PUBLIC "-//W3C//DTD SVG 1.1//EN" "http://www.w3.org/Graphics/SVG/1.1/DTD/svg11.dtd">
<svg version="1.1" xmlns="http://www.w3.org/2000/svg" xmlns:xlink="http://www.w3.org/1999/xlink" x="0px" y="0px"
	 viewBox="0 0 600 300" enable-background="new 0 0 600 300" xml:space="preserve">
<g id="Laag_2">
	<path fill="#e8b74c" d="M600,256.2v-15.8c-8.3-1-8.3-13.9,0-14.9v-14.5c-8.3-1-8.3-13.9,0-14.9v-15c-23.1-2.6-41.5-22.6-41.5-46.2
		s18.4-43.7,41.5-46.2V76.4c-8.3-1-8.3-13.9,0-14.9V46.5c-9.2-0.3-9.2-14.6,0-15V19.2c-0.1,0-0.2,0-0.3,0c-9.7,0-9.7-15,0-15
		c0.1,0,0.2,0,0.3,0V0H0v10.8c0.1,0,0.2,0,0.3,0c9.7,0,9.7,15,0,15c-0.1,0-0.2,0-0.3,0v11c9.2,0.3,9.2,14.6,0,15v13.1
		c8.3,1,8.3,13.9,0,14.9V96c21.5,4,38.2,23.2,38.2,45.7c0,22.5-16.7,41.7-38.2,45.7v15.5c8.3,1,8.3,13.9,0,14.9v13.1
		c9.2,0.3,9.2,14.6,0,15v13.7c8.3,1,8.3,13.9,0,14.9V300h600v-28.9C591.7,270.1,591.7,257.2,600,256.2z"/>
	<g>
		<path fill="#da0000" d="M112.5,71.3c0-0.1,0-0.2,0-0.3c0-0.1,0-0.1,0-0.2c0-0.3,0.1-0.6,0.3-0.8c0.2-0.2,0.4-0.3,0.7-0.3
			c0.2,0,0.5,0.1,0.7,0.3s0.3,0.4,0.4,0.8l1.3,4.6c0,0.1,0.1,0.2,0.1,0.3s0,0.2,0,0.3c0,0.2-0.1,0.4-0.3,0.5
			c-0.2,0.1-0.4,0.2-0.7,0.2H97.9v2.5c0,0.9-0.1,1.5-0.2,1.8s-0.4,0.4-0.9,0.4c-0.4,0-0.7-0.1-0.8-0.3s-0.3-0.5-0.3-0.9v-9.3
			c0-0.4,0.1-0.7,0.3-0.9c0.2-0.2,0.5-0.3,0.8-0.3c0.4,0,0.7,0.1,0.9,0.4s0.2,0.8,0.2,1.8v2.6h15.3L112.5,71.3z"/>
		<path fill="#da0000" d="M105.2,97.8c-0.7-0.6-1.3-1.2-1.6-1.9c-0.4-0.7-0.5-1.4-0.5-2.2c0-1.6,0.6-3,1.9-4.2s2.8-1.7,4.6-1.7
			c1.9,0,3.5,0.6,4.7,1.7c1.2,1.1,1.8,2.5,1.8,4.3c0,2-0.8,3.7-2.5,4.9s-3.8,1.9-6.5,1.9c-3.6,0-6.4-0.9-8.6-2.7
			c-2.1-1.8-3.2-4.3-3.2-7.3c0-1,0.1-1.6,0.2-1.9s0.4-0.5,0.8-0.5c0.7,0,1,0.6,1,1.9c0,0.8,0.1,1.5,0.2,2c0.3,1.6,1.1,3,2.5,4
			C101.3,96.9,103,97.5,105.2,97.8z M109.4,97.4c1.3,0,2.3-0.3,3.1-1c0.8-0.7,1.2-1.6,1.2-2.6c0-1-0.4-1.8-1.1-2.5
			c-0.8-0.6-1.8-0.9-3-0.9c-1.3,0-2.3,0.3-3.1,1c-0.8,0.7-1.2,1.5-1.2,2.5c0,1,0.4,1.8,1.1,2.5C107.2,97.1,108.2,97.4,109.4,97.4z"
			/>
		<path fill="#da0000" d="M95.2,113.4c0-2,0.9-3.5,2.8-4.7s4.4-1.7,7.6-1.7c3.2,0,5.7,0.6,7.6,1.7s2.8,2.7,2.8,4.7s-0.9,3.5-2.8,4.7
			c-1.9,1.2-4.4,1.7-7.6,1.7s-5.7-0.6-7.6-1.7C96.2,116.9,95.2,115.4,95.2,113.4z M113.7,113.4c0-1.2-0.7-2.1-2.1-2.8s-3.4-1-6-1
			c-2.6,0-4.6,0.3-6,1c-1.4,0.7-2.1,1.6-2.1,2.8c0,1.2,0.7,2.1,2.1,2.8c1.4,0.7,3.4,1,6,1c2.6,0,4.6-0.3,6-1
			C113,115.6,113.7,114.6,113.7,113.4z"/>
		<path fill="#da0000" d="M105.2,136.2c-0.7-0.6-1.3-1.2-1.6-1.9c-0.4-0.7-0.5-1.4-0.5-2.2c0-1.6,0.6-3,1.9-4.2s2.8-1.7,4.6-1.7
			c1.9,0,3.5,0.6,4.7,1.7c1.2,1.1,1.8,2.5,1.8,4.3c0,2-0.8,3.7-2.5,4.9s-3.8,1.9-6.5,1.9c-3.6,0-6.4-0.9-8.6-2.7
			c-2.1-1.8-3.2-4.3-3.2-7.3c0-1,0.1-1.6,0.2-1.9s0.4-0.5,0.8-0.5c0.7,0,1,0.6,1,1.9c0,0.8,0.1,1.5,0.2,2c0.3,1.6,1.1,3,2.5,4
			C101.3,135.3,103,135.9,105.2,136.2z M109.4,135.9c1.3,0,2.3-0.3,3.1-1c0.8-0.7,1.2-1.6,1.2-2.6c0-1-0.4-1.8-1.1-2.5
			c-0.8-0.6-1.8-0.9-3-0.9c-1.3,0-2.3,0.3-3.1,1c-0.8,0.7-1.2,1.5-1.2,2.5c0,1,0.4,1.8,1.1,2.5C107.2,135.5,108.2,135.9,109.4,135.9
			z"/>
		<path fill="#da0000" d="M95.7,146.4c0-0.6,0.1-1,0.3-1.2s0.6-0.4,1-0.4c0.7,0,1.9,1,3.8,3l0.4,0.5c0.3,0.3,0.7,0.7,1.2,1.3
			c3.4,3.6,5.9,5.4,7.4,5.4c1.1,0,2-0.3,2.7-1c0.7-0.6,1-1.5,1-2.5c0-0.7-0.1-1.3-0.4-1.9c-0.3-0.6-0.6-1.1-1.1-1.4
			c-0.1-0.1-0.2-0.2-0.4-0.3c-0.7-0.4-1-0.8-1-1.3c0-0.4,0.1-0.6,0.3-0.8c0.2-0.2,0.7-0.2,1.3-0.2c0.4,0,0.6,0,0.8,0.1
			s0.4,0.2,0.6,0.4c0.6,0.7,1.2,1.5,1.5,2.5c0.4,1,0.6,2,0.6,3c0,1.7-0.6,3.2-1.7,4.3c-1.1,1.2-2.5,1.7-4.1,1.7
			c-2,0-4.8-1.8-8.1-5.3c-0.8-0.9-1.5-1.6-2-2.1l-1.8-1.9v7.1c0.4,0,0.8,0.2,1,0.4s0.4,0.5,0.4,0.8s-0.1,0.6-0.3,0.8
			c-0.2,0.2-0.5,0.3-0.9,0.3c0,0-0.1,0-0.2,0c-0.1,0-0.1,0-0.2,0l-1.2-0.1c-0.3,0-0.6-0.1-0.8-0.3s-0.3-0.4-0.3-0.6V146.4z"/>
		<path fill="#da0000" d="M95.2,171c0-2,0.9-3.5,2.8-4.7s4.4-1.7,7.6-1.7c3.2,0,5.7,0.6,7.6,1.7s2.8,2.7,2.8,4.7s-0.9,3.5-2.8,4.7
			c-1.9,1.2-4.4,1.7-7.6,1.7s-5.7-0.6-7.6-1.7C96.2,174.6,95.2,173,95.2,171z M113.7,171c0-1.2-0.7-2.1-2.1-2.8c-1.4-0.7-3.4-1-6-1
			c-2.6,0-4.6,0.3-6,1c-1.4,0.7-2.1,1.6-2.1,2.8c0,1.2,0.7,2.1,2.1,2.8c1.4,0.7,3.4,1,6,1c2.6,0,4.6-0.3,6-1
			C113,173.2,113.7,172.3,113.7,171z"/>
		<path fill="#da0000" d="M112.5,186.5c0-0.1,0-0.2,0-0.3c0-0.1,0-0.1,0-0.2c0-0.3,0.1-0.6,0.3-0.8c0.2-0.2,0.4-0.3,0.7-0.3
			c0.2,0,0.5,0.1,0.7,0.3c0.2,0.2,0.3,0.4,0.4,0.8l1.3,4.6c0,0.1,0.1,0.2,0.1,0.3s0,0.2,0,0.3c0,0.2-0.1,0.4-0.3,0.5
			c-0.2,0.1-0.4,0.2-0.7,0.2H97.9v2.5c0,0.9-0.1,1.5-0.2,1.8s-0.4,0.4-0.9,0.4c-0.4,0-0.7-0.1-0.8-0.3s-0.3-0.5-0.3-0.9V186
			c0-0.4,0.1-0.7,0.3-0.9c0.2-0.2,0.5-0.3,0.8-0.3c0.4,0,0.7,0.1,0.9,0.4s0.2,0.8,0.2,1.8v2.6h15.3L112.5,186.5z"/>
		<path fill="#da0000" d="M112.5,205.7c0-0.1,0-0.2,0-0.3c0-0.1,0-0.1,0-0.2c0-0.3,0.1-0.6,0.3-0.8c0.2-0.2,0.4-0.3,0.7-0.3
			c0.2,0,0.5,0.1,0.7,0.3c0.2,0.2,0.3,0.4,0.4,0.8l1.3,4.6c0,0.1,0.1,0.2,0.1,0.3s0,0.2,0,0.3c0,0.2-0.1,0.4-0.3,0.5
			c-0.2,0.1-0.4,0.2-0.7,0.2H97.9v2.5c0,0.9-0.1,1.5-0.2,1.8s-0.4,0.4-0.9,0.4c-0.4,0-0.7-0.1-0.8-0.3s-0.3-0.5-0.3-0.9v-9.3
			c0-0.4,0.1-0.7,0.3-0.9c0.2-0.2,0.5-0.3,0.8-0.3c0.4,0,0.7,0.1,0.9,0.4s0.2,0.8,0.2,1.8v2.6h15.3L112.5,205.7z"/>
	</g>
	<g>
		<path fill="#da0000" d="M487.8,213.2c0,0.1,0,0.2,0,0.3c0,0.1,0,0.1,0,0.2c0,0.3-0.1,0.6-0.3,0.8c-0.2,0.2-0.4,0.3-0.7,0.3
			c-0.2,0-0.5-0.1-0.7-0.3c-0.2-0.2-0.3-0.4-0.4-0.8l-1.3-4.6c0-0.1-0.1-0.2-0.1-0.3s0-0.2,0-0.3c0-0.2,0.1-0.4,0.3-0.5
			c0.2-0.1,0.4-0.2,0.7-0.2h16.9v-2.5c0-0.9,0.1-1.5,0.2-1.8c0.2-0.2,0.4-0.4,0.9-0.4c0.4,0,0.7,0.1,0.8,0.3s0.3,0.5,0.3,0.9v9.3
			c0,0.4-0.1,0.7-0.3,0.9c-0.2,0.2-0.5,0.3-0.8,0.3c-0.4,0-0.7-0.1-0.9-0.4c-0.2-0.2-0.2-0.8-0.2-1.8v-2.6h-15.3L487.8,213.2z"/>
		<path fill="#da0000" d="M495.2,186.7c0.7,0.6,1.3,1.2,1.6,1.9c0.4,0.7,0.5,1.4,0.5,2.2c0,1.6-0.6,3-1.9,4.2
			c-1.2,1.2-2.8,1.7-4.6,1.7c-1.9,0-3.5-0.6-4.7-1.7c-1.2-1.1-1.8-2.5-1.8-4.3c0-2,0.8-3.7,2.5-4.9c1.6-1.3,3.8-1.9,6.5-1.9
			c3.6,0,6.4,0.9,8.6,2.7c2.1,1.8,3.2,4.3,3.2,7.3c0,1-0.1,1.6-0.2,1.9c-0.1,0.3-0.4,0.5-0.8,0.5c-0.7,0-1-0.6-1-1.9
			c0-0.8-0.1-1.5-0.2-2c-0.3-1.6-1.1-3-2.5-4C499.1,187.6,497.3,187,495.2,186.7z M491,187c-1.3,0-2.3,0.3-3.1,1
			c-0.8,0.7-1.2,1.6-1.2,2.6c0,1,0.4,1.8,1.1,2.5c0.8,0.6,1.8,0.9,3,0.9c1.3,0,2.3-0.3,3.1-1c0.8-0.7,1.2-1.5,1.2-2.5
			c0-1-0.4-1.8-1.1-2.5C493.1,187.4,492.1,187,491,187z"/>
		<path fill="#da0000" d="M505.1,171.1c0,2-0.9,3.5-2.8,4.7s-4.4,1.7-7.6,1.7c-3.2,0-5.7-0.6-7.6-1.7s-2.8-2.7-2.8-4.7
			s0.9-3.5,2.8-4.7c1.9-1.2,4.4-1.7,7.6-1.7c3.2,0,5.7,0.6,7.6,1.7S505.1,169.1,505.1,171.1z M486.6,171.1c0,1.2,0.7,2.1,2.1,2.8
			c1.4,0.7,3.4,1,6,1c2.6,0,4.6-0.3,6-1c1.4-0.7,2.1-1.6,2.1-2.8c0-1.2-0.7-2.1-2.1-2.8c-1.4-0.7-3.4-1-6-1c-2.6,0-4.6,0.3-6,1
			C487.3,168.9,486.6,169.9,486.6,171.1z"/>
		<path fill="#da0000" d="M494.4,155.6c-0.7-0.6-1.3-1.2-1.6-1.9c-0.4-0.7-0.5-1.4-0.5-2.3c0-1.6,0.6-3,1.9-4.2
			c1.2-1.2,2.8-1.7,4.6-1.7c1.9,0,3.5,0.6,4.7,1.7c1.2,1.1,1.8,2.5,1.8,4.3c0,2.1-0.8,3.7-2.4,4.9s-3.8,1.9-6.5,1.9
			c-3.5,0-6.4-0.9-8.5-2.7c-2.2-1.8-3.2-4.2-3.2-7.2c0-1,0.1-1.7,0.2-2c0.1-0.3,0.4-0.5,0.8-0.5c0.7,0,1,0.6,1,1.8
			c0,0.8,0.1,1.5,0.2,2c0.3,1.6,1.1,3,2.5,4S492.2,155.3,494.4,155.6z M498.5,155.2c1.3,0,2.3-0.3,3.1-1c0.8-0.7,1.2-1.5,1.2-2.6
			c0-1-0.4-1.8-1.1-2.5c-0.8-0.6-1.8-1-3-1c-1.3,0-2.3,0.3-3.1,1c-0.8,0.7-1.2,1.5-1.2,2.6c0,1,0.4,1.8,1.1,2.5
			C496.4,154.9,497.3,155.2,498.5,155.2z"/>
		<path fill="#da0000" d="M504.6,138.1c0,0.6-0.1,1-0.3,1.2c-0.2,0.3-0.6,0.4-1,0.4c-0.7,0-1.9-1-3.8-3l-0.4-0.5
			c-0.3-0.3-0.7-0.7-1.2-1.3c-3.4-3.6-5.9-5.4-7.4-5.4c-1.1,0-2,0.3-2.7,1c-0.7,0.6-1,1.5-1,2.5c0,0.7,0.1,1.3,0.4,1.9
			c0.3,0.6,0.6,1.1,1.1,1.4c0.1,0.1,0.2,0.2,0.4,0.3c0.7,0.4,1,0.8,1,1.3c0,0.4-0.1,0.6-0.3,0.8s-0.7,0.2-1.3,0.2
			c-0.4,0-0.6,0-0.8-0.1s-0.4-0.2-0.6-0.4c-0.6-0.7-1.2-1.5-1.5-2.5c-0.4-1-0.6-2-0.6-3c0-1.7,0.6-3.2,1.7-4.3
			c1.1-1.2,2.5-1.7,4.1-1.7c2,0,4.8,1.8,8.1,5.3c0.8,0.9,1.5,1.6,2,2.1l1.8,1.9V129c-0.4,0-0.8-0.2-1-0.4s-0.4-0.5-0.4-0.8
			s0.1-0.6,0.3-0.8c0.2-0.2,0.5-0.3,0.9-0.3c0,0,0.1,0,0.2,0c0.1,0,0.1,0,0.2,0l1.2,0.1c0.3,0,0.6,0.1,0.8,0.3
			c0.2,0.2,0.3,0.4,0.3,0.6V138.1z"/>
		<path fill="#da0000" d="M505.1,113.4c0,2-0.9,3.5-2.8,4.7s-4.4,1.7-7.6,1.7c-3.2,0-5.7-0.6-7.6-1.7s-2.8-2.7-2.8-4.7
			s0.9-3.5,2.8-4.7c1.9-1.2,4.4-1.7,7.6-1.7c3.2,0,5.7,0.6,7.6,1.7S505.1,111.5,505.1,113.4z M486.6,113.4c0,1.2,0.7,2.1,2.1,2.8
			s3.4,1,6,1c2.6,0,4.6-0.3,6-1c1.4-0.7,2.1-1.6,2.1-2.8c0-1.2-0.7-2.1-2.1-2.8c-1.4-0.7-3.4-1-6-1c-2.6,0-4.6,0.3-6,1
			C487.3,111.3,486.6,112.2,486.6,113.4z"/>
		<path fill="#da0000" d="M487.8,98c0,0.1,0,0.2,0,0.3c0,0.1,0,0.1,0,0.2c0,0.3-0.1,0.6-0.3,0.8c-0.2,0.2-0.4,0.3-0.7,0.3
			c-0.2,0-0.5-0.1-0.7-0.3s-0.3-0.4-0.4-0.8l-1.3-4.6c0-0.1-0.1-0.2-0.1-0.3s0-0.2,0-0.3c0-0.2,0.1-0.4,0.3-0.5
			c0.2-0.1,0.4-0.2,0.7-0.2h16.9v-2.5c0-0.9,0.1-1.5,0.2-1.8c0.2-0.2,0.4-0.4,0.9-0.4c0.4,0,0.7,0.1,0.8,0.3s0.3,0.5,0.3,0.9v9.3
			c0,0.4-0.1,0.7-0.3,0.9c-0.2,0.2-0.5,0.3-0.8,0.3c-0.4,0-0.7-0.1-0.9-0.4c-0.2-0.2-0.2-0.8-0.2-1.8V95h-15.3L487.8,98z"/>
		<path fill="#da0000" d="M504.6,75.4c0,0.5-0.1,0.8-0.2,1c-0.2,0.2-0.5,0.3-0.9,0.3c-0.4,0-0.6-0.1-0.8-0.3s-0.3-0.5-0.3-0.9v-1.8
			h-2.6V81c0,0.3-0.1,0.5-0.2,0.6c-0.2,0.1-0.4,0.2-0.7,0.2h-1.1c-0.4,0-0.9-0.2-1.3-0.5c-0.1-0.1-0.2-0.1-0.2-0.1L485,74.7
			c-0.3-0.1-0.4-0.3-0.5-0.4c-0.1-0.1-0.1-0.2-0.1-0.4c0-0.1,0-0.2,0-0.3c0,0,0-0.1,0-0.1l0.2-1.6c0-0.1,0.1-0.3,0.2-0.4
			c0.1-0.1,0.3-0.1,0.6-0.1h11.9v-0.8c0-0.2-0.1-0.4-0.3-0.5c-0.2-0.1-0.3-0.3-0.3-0.4c0-0.2,0.1-0.4,0.2-0.5s0.3-0.2,0.6-0.2
			c0.1,0,0.2,0,0.3,0s0.2,0,0.2,0.1l0.6,0.1c0.4,0.1,0.6,0.2,0.8,0.3c0.1,0.1,0.2,0.4,0.2,0.7v1.3h2.6v-0.5c0-0.7,0.1-1.1,0.2-1.4
			c0.2-0.2,0.4-0.4,0.8-0.4c0.4,0,0.7,0.1,0.8,0.3c0.2,0.2,0.3,0.5,0.3,0.9V75.4z M497.4,73.7h-10.6l10.6,5.9V73.7z"/>
	</g>
</g>
<g id="Laag_3">
	<path fill="none" stroke="#a76700" stroke-width="7" stroke-miterlimit="10" d="M525.5,244.5c0,6.6-5.4,12-12,12h-431
		c-6.6,0-12-5.4-12-12v-200c0-6.6,5.4-12,12-12h431c6.6,0,12,5.4,12,12V244.5z"/>
	<line fill="none" stroke="#a76700" stroke-width="6" stroke-miterlimit="10" x1="140" y1="33" x2="140" y2="257"/>
	<line fill="none" stroke="#a76700" stroke-width="6" stroke-miterlimit="10" x1="462" y1="33" x2="462" y2="257"/>
	<line fill="none" stroke="#a76700" stroke-width="4" stroke-miterlimit="10" x1="177" y1="129" x2="287" y2="129"/>
	<line fill="none" stroke="#a76700" stroke-width="4" stroke-miterlimit="10" x1="313" y1="129" x2="423" y2="129"/>
	<polygon fill="#a76700" points="299.9,119.1 302.5,124.4 308.4,125.2 304.1,129.4 305.1,135.2 299.9,132.4 294.6,135.2
		295.6,129.4 291.4,125.2 297.3,124.4 	"/>
	<g>
	</g>
	<g>
	</g>
	<g>
	</g>
	<g>
	</g>
	<g>
	</g>
	<g>
	</g>
	<g>
	</g>
	<g>
	</g>
	<g>
	</g>
	<g>
	</g>
	<g>
	</g>
	<g>
	</g>
	<g>
	</g>
	<g>
	</g>
	<g>
	</g>
</g>
</svg>
